<svg width="176" height="52" viewBox="0 0 176 52" fill="none" xmlns="http://www.w3.org/2000/svg">
<path d="M64.13 38V17H67.31V35.48H76.85V38H64.13ZM88.029 38.36C85.949 38.36 84.129 37.9 82.569 36.98C81.009 36.06 79.789 34.79 78.909 33.17C78.029 31.53 77.589 29.64 77.589 27.5C77.589 25.36 78.029 23.48 78.909 21.86C79.789 20.22 81.009 18.94 82.569 18.02C84.129 17.1 85.949 16.64 88.029 16.64C90.109 16.64 91.929 17.1 93.489 18.02C95.049 18.94 96.259 20.22 97.119 21.86C97.999 23.48 98.439 25.36 98.439 27.5C98.439 29.64 97.999 31.53 97.119 33.17C96.259 34.79 95.049 36.06 93.489 36.98C91.929 37.9 90.109 38.36 88.029 38.36ZM88.029 35.51C89.469 35.51 90.719 35.19 91.779 34.55C92.859 33.91 93.699 32.99 94.299 31.79C94.899 30.59 95.199 29.16 95.199 27.5C95.199 25.84 94.899 24.41 94.299 23.21C93.699 22.01 92.859 21.09 91.779 20.45C90.719 19.81 89.469 19.49 88.029 19.49C86.589 19.49 85.329 19.81 84.249 20.45C83.169 21.09 82.329 22.01 81.729 23.21C81.149 24.41 80.859 25.84 80.859 27.5C80.859 29.16 81.149 30.59 81.729 31.79C82.329 32.99 83.169 33.91 84.249 34.55C85.329 35.19 86.589 35.51 88.029 35.51ZM99.196 38L106.936 17H110.416L118.096 38H114.736L112.936 32.87H104.356L102.556 38H99.196ZM105.256 30.35H112.036L108.646 20.78L105.256 30.35ZM121.025 38V17H124.205L134.735 32.81V17H137.915V38H134.735L124.205 22.19V38H121.025ZM142.177 38V17H155.527V19.58H145.357V26.12H154.627V28.64H145.357V35.42H155.527V38H142.177ZM159.316 38V17H166.546C168.206 17 169.566 17.28 170.626 17.84C171.706 18.4 172.506 19.16 173.026 20.12C173.546 21.06 173.806 22.11 173.806 23.27C173.806 24.57 173.456 25.75 172.756 26.81C172.076 27.87 171.006 28.63 169.546 29.09L174.016 38H170.326L166.246 29.54H162.496V38H159.316ZM162.496 27.14H166.366C167.806 27.14 168.856 26.79 169.516 26.09C170.196 25.39 170.536 24.48 170.536 23.36C170.536 22.24 170.206 21.35 169.546 20.69C168.886 20.01 167.816 19.67 166.336 19.67H162.496V27.14Z" fill="black"/>
<circle cx="28" cy="27" r="25" fill="#0C1825"/>
<circle cx="17.5" cy="17.5" r="16.5" fill="white" stroke="#0C1825" stroke-width="2"/>
</svg>
