<svg width="80" height="80" viewBox="0 0 80 80" fill="none" xmlns="http://www.w3.org/2000/svg">
<path d="M36 8C33.7909 8 32 9.79088 32 12C32 14.2091 33.7909 16 36 16H44C46.2092 16 48 14.2091 48 12C48 9.79088 46.2092 8 44 8H36Z" fill="#E5E5E5"/>
<path fill-rule="evenodd" clip-rule="evenodd" d="M16 20C16 15.5817 19.5817 12 24 12C24 18.6274 29.3726 24 36 24H44C50.6276 24 56 18.6274 56 12C60.4184 12 64 15.5817 64 20V64C64 68.4184 60.4184 72 56 72H24C19.5817 72 16 68.4184 16 64V20ZM28 36C25.7909 36 24 37.7909 24 40C24 42.2092 25.7909 44 28 44H28.04C30.2491 44 32.04 42.2092 32.04 40C32.04 37.7909 30.2491 36 28.04 36H28ZM40 36C37.7909 36 36 37.7909 36 40C36 42.2092 37.7909 44 40 44H52C54.2092 44 56 42.2092 56 40C56 37.7909 54.2092 36 52 36H40ZM28 52C25.7909 52 24 53.7908 24 56C24 58.2092 25.7909 60 28 60H28.04C30.2491 60 32.04 58.2092 32.04 56C32.04 53.7908 30.2491 52 28.04 52H28ZM40 52C37.7909 52 36 53.7908 36 56C36 58.2092 37.7909 60 40 60H52C54.2092 60 56 58.2092 56 56C56 53.7908 54.2092 52 52 52H40Z" fill="#E5E5E5"/>
</svg>
