<svg width="800" height="450" viewBox="0 0 800 450" fill="none" xmlns="http://www.w3.org/2000/svg">
<path fill-rule="evenodd" clip-rule="evenodd" d="M718 164C748.546 164 776.839 154.355 800 137.945V26.375C791.571 24.8152 782.881 24 774 24C705.451 24 648.247 72.5723 634.927 137.177C658.285 154.054 686.981 164 718 164ZM633.156 135.877C598.463 109.987 576 68.6167 576 22C576 14.5173 576.579 7.16992 577.694 0H800V24.3411C791.567 22.8032 782.877 22 774 22C704.802 22 647.005 70.8086 633.156 135.877ZM800 307.659V450H0V0H575.67C574.57 7.17261 574 14.5198 574 22C574 69.6094 597.104 111.823 632.713 138.038C630.933 147.084 630 156.433 630 166C630 245.529 694.471 310 774 310C782.877 310 791.567 309.197 800 307.659ZM800 305.625C791.571 307.185 782.881 308 774 308C695.576 308 632 244.424 632 166C632 156.885 632.859 147.97 634.5 139.333C658.051 156.124 686.872 166 718 166C748.47 166 776.73 156.536 800 140.388V305.625Z" fill="#0C1825"/>
</svg>
